HIERARCHY
ROOT Hips
{
    OFFSET 0.0 0.0 0.0
    CHANNELS 6 Xposition Yposition Zposition Zrotation Xrotation Yrotation
    JOINT LeftUpLeg
    {
        OFFSET 14.115484867553791 0.0 0.0
        CHANNELS 3 Zrotation Xrotation Yrotation
        JOINT LeftLeg
        {
            OFFSET 0.0 0.0 -56.58649383856297
            CHANNELS 3 Zrotation Xrotation Yrotation
            JOINT LeftFoot
            {
                OFFSET 0.0 0.0 -45.636422591467436
                CHANNELS 3 Zrotation Xrotation Yrotation
                JOINT LeftToeBase
                {
                    OFFSET 0.0 -13.085664068743565 0.0
                    CHANNELS 3 Zrotation Xrotation Yrotation
                    End Site
                    {
                        OFFSET 0 0 0
                    }
                }
            }
        }
    }
    JOINT RightUpLeg
    {
        OFFSET -14.115484867553791 0.0 0.0
        CHANNELS 3 Zrotation Xrotation Yrotation
        JOINT RightLeg
        {
            OFFSET 0.0 0.0 -56.58649383856297
            CHANNELS 3 Zrotation Xrotation Yrotation
            JOINT RightFoot
            {
                OFFSET 0.0 0.0 -45.636422591467436
                CHANNELS 3 Zrotation Xrotation Yrotation
                JOINT RightToeBase
                {
                    OFFSET 0.0 -13.085664068743565 0.0
                    CHANNELS 3 Zrotation Xrotation Yrotation
                    End Site
                    {
                        OFFSET 0 0 0
                    }
                }
            }
        }
    }
    JOINT Spine
    {
        OFFSET 0.0 0.0 11.743136450262181
        CHANNELS 3 Zrotation Xrotation Yrotation
        JOINT Spine1
        {
            OFFSET 0.0 0.0 11.665834129351376
            CHANNELS 3 Zrotation Xrotation Yrotation
            JOINT Spine2
            {
                OFFSET 0.0 0.0 11.665834129351376
                CHANNELS 3 Zrotation Xrotation Yrotation
                JOINT Spine3
                {
                    OFFSET 0.0 0.0 11.665834129351369
                    CHANNELS 3 Zrotation Xrotation Yrotation
                    JOINT Spine4
                    {
                        OFFSET 0.0 0.0 11.665834129351381
                        CHANNELS 3 Zrotation Xrotation Yrotation
                        JOINT RightShoulder
                        {
                            OFFSET -23.562778574333734 0.0 0.0
                            CHANNELS 3 Zrotation Xrotation Yrotation
                            JOINT RightArm
                            {
                                OFFSET -33.871202857414914 0.0 0.0
                                CHANNELS 3 Zrotation Xrotation Yrotation
                                JOINT RightForeArm
                                {
                                    OFFSET -34.39240403731349 0.0 0.0
                                    CHANNELS 3 Zrotation Xrotation Yrotation
                                    JOINT RightHand
                                    {
                                        OFFSET -11.324634354124935 0.0 0.0
                                        CHANNELS 3 Zrotation Xrotation Yrotation
                                        End Site
                                        {
                                            OFFSET 0 0 0
                                        }
                                    }
                                }
                            }
                        }
                        JOINT LeftShoulder
                        {
                            OFFSET 23.562778574333734 0.0 0.0
                            CHANNELS 3 Zrotation Xrotation Yrotation
                            JOINT LeftArm
                            {
                                OFFSET 33.871202857414914 0.0 0.0
                                CHANNELS 3 Zrotation Xrotation Yrotation
                                JOINT LeftForeArm
                                {
                                    OFFSET 34.39240403731349 0.0 0.0
                                    CHANNELS 3 Zrotation Xrotation Yrotation
                                    JOINT LeftHand
                                    {
                                        OFFSET 11.324634354124935 0.0 0.0
                                        CHANNELS 3 Zrotation Xrotation Yrotation
                                        End Site
                                        {
                                            OFFSET 0 0 0
                                        }
                                    }
                                }
                            }
                        }
                        JOINT Neck
                        {
                            OFFSET 0.0 0.0 11.665834157815514
                            CHANNELS 3 Zrotation Xrotation Yrotation
                            JOINT Head
                            {
                                OFFSET 0.0 0.0 26.063797731161248
                                CHANNELS 3 Zrotation Xrotation Yrotation
                                End Site
                                {
                                    OFFSET 0 0 0
                                }
                            }
                        }
                    }
                }
            }
        }
    }
}
MOTION
Frames: 9
Frame Time: 0.03333333333333333
58.967241740226754 -2.976143690943718 485.55487232208253 97.35095184511451 -77.45073778730794 96.26625665574203 2.174173704587647 -0.42708817530634047 -10.34075847014626 -2.3690647902880806 1.6225766550961132 0.7581034443843676 -8.288360451301271 1.5107634736951704e-14 33.6676258303107 0.0 0.0 0.0 9.476225569591977 11.111280643175693 8.258503244444238 -25.57520668312734 -17.330347084770633 -26.87641623970694 -15.449704741413694 -3.1805546814635168e-15 -29.278517475967607 -1.5902773407317584e-15 0.0 0.0 0.0007810216352990033 -0.05709861709663438 -0.04990851472379186 0.0 0.0 0.0 0.0 0.0 0.0 0.0 0.0 0.0 0.0 0.0 0.0 130.52568439502608 10.06660617139972 -158.0788312323362 116.64639257042215 -1.2497106274677922e-14 -3.9740548750183496e-15 -2.681324185369058e-15 -24.01915704664907 2.681324185369058e-15 0.0 0.0 0.0 -148.02381576689353 2.2784335648930427 158.3123211278433 -118.88240885080447 -6.286133846931394e-15 1.86472936535744e-15 180.0 -54.41776895269618 180.0 0.0 0.0 7.951386703658792e-16 -9.691399532747452 9.252857154317918e-15 -1.3574001376270736e-17 0.0 0.0 0.0
58.967241740226754 -2.976143690943718 485.55487232208253 97.35095184511451 -77.45073778730794 96.26625665574203 2.174173704587647 -0.42708817530634047 -10.34075847014626 -2.3690647902880806 1.6225766550961132 0.7581034443843676 -8.288360451301271 1.5107634736951704e-14 33.6676258303107 0.0 0.0 0.0 9.476225569591977 11.111280643175693 8.258503244444238 -25.57520668312734 -17.330347084770633 -26.87641623970694 -15.449704741413694 -3.1805546814635168e-15 -29.278517475967607 -1.5902773407317584e-15 0.0 0.0 0.0007810216352990033 -0.05709861709663438 -0.04990851472379186 0.0 0.0 0.0 0.0 0.0 0.0 0.0 0.0 0.0 0.0 0.0 0.0 130.52568439502608 10.06660617139972 -158.0788312323362 116.64639257042215 -1.2497106274677922e-14 -3.9740548750183496e-15 -2.681324185369058e-15 -24.01915704664907 2.681324185369058e-15 0.0 0.0 0.0 -148.02381576689353 2.2784335648930427 158.3123211278433 -118.88240885080447 -6.286133846931394e-15 1.86472936535744e-15 180.0 -54.41776895269618 180.0 0.0 0.0 7.951386703658792e-16 -9.691399532747452 9.252857154317918e-15 -1.3574001376270736e-17 0.0 0.0 0.0
58.967241740226754 -2.976143690943718 485.55487232208253 97.35095184511451 -77.45073778730794 96.26625665574203 2.174173704587647 -0.42708817530634047 -10.34075847014626 -2.3690647902880806 1.6225766550961132 0.7581034443843676 -8.288360451301271 1.5107634736951704e-14 33.6676258303107 0.0 0.0 0.0 9.476225569591977 11.111280643175693 8.258503244444238 -25.57520668312734 -17.330347084770633 -26.87641623970694 -15.449704741413694 -3.1805546814635168e-15 -29.278517475967607 -1.5902773407317584e-15 0.0 0.0 0.0007810216352990033 -0.05709861709663438 -0.04990851472379186 0.0 0.0 0.0 0.0 0.0 0.0 0.0 0.0 0.0 0.0 0.0 0.0 130.52568439502608 10.06660617139972 -158.0788312323362 116.64639257042215 -1.2497106274677922e-14 -3.9740548750183496e-15 -2.681324185369058e-15 -24.01915704664907 2.681324185369058e-15 0.0 0.0 0.0 -148.02381576689353 2.2784335648930427 158.3123211278433 -118.88240885080447 -6.286133846931394e-15 1.86472936535744e-15 180.0 -54.41776895269618 180.0 0.0 0.0 7.951386703658792e-16 -9.691399532747452 9.252857154317918e-15 -1.3574001376270736e-17 0.0 0.0 0.0
59.02665710449219 -2.9907891914248466 485.5462285995484 97.24400629590781 -77.66253521998017 96.14336150215136 1.2377996463936183 0.47784359538830995 -12.175800659468695 -1.9866937539633054 1.2735659248890159 3.2159862832563424 23.321417102483604 -6.3611093629270335e-15 42.35698330364483 3.0811623476677818e-15 -1.603489397338534e-32 -5.963540027744094e-16 9.454179706763982 11.025015687473362 8.346302071694264 -25.62530454799396 -17.25454728601536 -26.965950393420904 8.192765499333657 -1.1927080055488187e-14 -26.633069826902396 0.0 0.0 3.1805546814635168e-15 0.0009219426575119821 -0.09547543073568743 -0.031057189769376017 -7.951386703658792e-16 0.0 0.0 -7.951386703658792e-16 0.0 0.0 -7.951386703658792e-16 0.0 0.0 -7.951386703658792e-16 0.0 0.0 130.60073529680858 9.760634614833519 -158.1365249922244 116.47626858349943 0.0 0.0 7.26381819630304e-16 -24.07144043911939 3.406912339269467e-15 0.0 0.0 0.0 -147.4999900033693 3.3974446510753182 158.36952982167588 -118.3012146785185 5.683233527117962e-16 -1.1453561613310329e-14 180.0 -56.03751329214759 180.0 0.0 0.0 1.4908850069360235e-16 -9.348544843978484 1.5830882657323022e-14 -3.012049928308478e-16 0.0 -6.212020862233433e-18 0.0
59.03681831359863 -3.007984989881516 485.5439672470093 97.21694427886382 -77.69724173603169 96.11112992698811 0.805984970228748 0.9020680653117863 -12.961122315472888 -2.6754823321519607 1.6652215520378073 2.860669767573645 29.133851262516718 -3.1805546814635168e-15 48.15094900977573 3.0811623476677814e-15 6.361109362927033e-15 2.7829853462805768e-15 9.458172187648126 11.012846912233067 8.368447382387773 -25.59394666006533 -17.20919820657936 -26.978074724072425 17.328739476822356 7.951386703658792e-16 -26.431820190468816 3.1805546814635168e-15 0.0 0.0 0.0008728611500327678 -0.10389281309662528 -0.02702218801321345 0.0 0.0 0.0 0.0 0.0 0.0 0.0 0.0 0.0 0.0 0.0 0.0 130.58384650046472 9.653710843873341 -158.10216427597936 116.46074702990931 -8.372892546600604e-16 1.35200914363612e-15 -7.320373833231905e-16 -24.230968588025714 -3.4101525985880284e-15 1.5902773407317584e-15 0.0 0.0 -147.4216181223872 3.5302271244500503 158.3608358549433 -118.19612872050024 1.633438231149226e-15 2.7290671715440754e-15 180.0 -56.041783347528686 180.0 3.975693351829396e-16 1.5902773407317584e-15 -9.93923337957349e-17 -9.274911198842174 -1.9605242655967607e-14 -7.92550111054921e-16 0.0 0.0 0.0
59.04614081382751 -3.025667729973793 485.5417058944702 97.18885292845452 -77.73209010940587 96.07745219412321 0.5449820037037665 1.1580572010096029 -13.335355502176807 -0.7130186901675324 0.4381088414849686 5.154225651621416 30.50083835812711 -1.2722218725854067e-14 46.20944833692549 5.9635400277440935e-15 -6.207055731633035e-32 -1.1927080055488188e-15 9.465068858887983 11.001144300837073 8.391136600081053 -25.531788990228794 -17.13965669127293 -26.970189353665152 24.940544673120773 1.4312496066585827e-14 -26.527860799924618 0.0 0.0 0.0 0.0007886023467186308 -0.11234867011442204 -0.022930440259988905 7.951386703658792e-16 0.0 0.0 7.951386703658792e-16 0.0 0.0 7.951386703658792e-16 0.0 0.0 7.951386703658792e-16 0.0 0.0 130.56007601881208 9.532561555724667 -158.0563299877442 116.44315344880212 9.977547786884956e-15 8.051855158244209e-15 -8.535122715267942e-15 -24.42100616834585 -1.8469966556800123e-15 -1.5902773407317584e-15 4.4139062980501586e-32 -3.1805546814635168e-15 -146.42257294633532 3.3426907728435875 158.13389665439087 -117.14867539783316 2.9405719546506143e-15 -7.387664522069482e-15 180.0 -55.9970792758821 180.0 3.975693351829396e-16 2.758691436281349e-33 7.951386703658792e-16 -9.732519325515756 1.5757527512173958e-14 -2.5448073178493985e-16 0.0 3.1060104311167152e-18 0.0
59.054171776771554 -3.0411491498351095 485.5399206161499 97.15609811205253 -77.76192590862132 96.04099256328104 0.35441826510325364 1.342967975394664 -13.564004859678073 0.04049297194028502 -0.024684839249976213 5.898168593019689 40.142683246119425 -1.2722218725854067e-14 50.84727273438186 -1.1927080055488188e-15 1.6552148617688095e-32 -1.5902773407317584e-15 9.479039932254265 10.991775792352527 8.409954819579742 -25.45203096395817 -17.05597571741451 -26.95038083486774 31.480925950212278 -2.3854160110976376e-15 -26.77999102605036 0.0 0.0 0.0 0.000685820583178486 -0.12156483955778748 -0.02095548979245026 -7.951386703658792e-16 0.0 0.0 -7.951386703658792e-16 0.0 0.0 -7.951386703658792e-16 0.0 0.0 -7.951386703658792e-16 0.0 0.0 130.5218905895042 9.394731081072862 -157.99924696921883 116.4246706538006 -4.569267045124091e-15 -4.702604918330459e-15 -7.583752125443649e-15 -24.639372269198756 -4.911776920750057e-15 0.0 0.0 0.0 -145.96503993701083 3.2260020921523815 158.09551702819422 -116.67383121869536 -1.4167604960520273e-14 1.2639348552165188e-15 -180.0 -56.40726317949774 -180.0 0.0 0.0 -6.460501696722769e-16 -9.881217205503912 1.20502678873366e-14 2.435723275418207e-16 0.0 0.0 0.0
59.06162438392639 -3.0580217733979227 485.5387601852417 97.11155827305727 -77.7864847503187 95.99369348643822 0.2049544748712833 1.4851252477400236 -13.718849191867328 0.09249173985943408 -0.056103617348487025 5.997733455865257 41.56760184941279 0.0 51.7154012374131 2.782985346280577e-15 -1.9310840053969444e-32 -7.951386703658792e-16 9.499672410949865 10.98445381627616 8.427633489376642 -25.371012944893483 -16.96811906739602 -26.947781341032304 63.891388746317574 0.0 -37.02708945186813 0.0 0.0 -6.3611093629270335e-15 0.000560384169553613 -0.1333171422310916 -0.020431287259137104 7.951386703658792e-16 0.0 0.0 7.951386703658792e-16 0.0 0.0 7.951386703658792e-16 0.0 0.0 7.951386703658792e-16 0.0 0.0 130.46501782245085 9.23210109587139 -157.92293863931044 116.39027811127968 3.7725281816071607e-16 1.1461446042028169e-14 -1.2739453099396413e-14 -24.89386871507261 -6.06900212353182e-15 0.0 0.0 0.0 -145.81962482477147 3.0448127950228674 158.12769625729717 -116.58949450676417 -7.083335448518818e-15 6.37180769212451e-16 180.0 -58.23056584579793 -180.0 0.0 0.0 0.0 -9.867607878100523 -3.189971388473823e-15 -1.4725167474987435e-15 -1.987846675914698e-16 0.0 0.0
59.07070791721345 -3.0823098689317705 485.53768157958984 97.06553431369743 -77.81021079497633 95.94449255506085 0.0779806925078276 1.6050066830479683 -13.828261587816417 0.14476237955833696 -0.08755987379472653 6.1787814582855365 42.57419728014577 1.2722218725854067e-14 51.95230576336263 -2.782985346280577e-15 3.862168010793889e-32 -1.5902773407317584e-15 9.525615849336397 10.981208437196091 8.450413042525652 -25.317264632133778 -16.892273208582257 -26.99758582380515 64.64756938059828 1.5902773407317584e-14 -37.14434635272774 0.0 0.0 0.0 0.00038419464100247563 -0.14698649180713738 -0.0206851494613978 7.951386703658792e-16 0.0 0.0 7.951386703658792e-16 0.0 0.0 7.951386703658792e-16 0.0 0.0 7.951386703658792e-16 0.0 0.0 130.4263460033998 9.048110161704889 -157.8638443838079 116.3599342100391 -6.243566406116311e-15 -2.0026414756462757e-15 -5.143496382901554e-15 -25.13264788652461 -1.146533893353216e-15 0.0 0.0 0.0 -145.77621637374554 2.949525816581384 158.19270804640996 -116.62129121965428 -5.412723475822194e-15 3.341577008150685e-15 -180.0 -60.6305402857626 -180.0 0.0 0.0 -5.466578358765419e-16 -9.78820687633334 3.19122169922144e-16 1.2243977714484941e-15 0.0 -3.1060104311167152e-18 0.0
